<svg viewBox="0 0 41 55" fill="none" xmlns="http://www.w3.org/2000/svg">
    <path d="M29.8665 15.6543C29.2731 15.0606 28.2841 14.6648 27.4929 14.6648C26.5039 14.6648 25.7126 15.0606 25.1192 15.6543L15.8225 24.9554C15.2291 25.5491 14.8335 26.5386 14.8335 27.3302C14.8335 28.3197 15.2291 29.1113 15.8225 29.705L30.8555 44.7451C30.8555 44.7451 31.0533 44.943 31.0533 45.1409C31.0533 45.3388 31.0533 45.3388 30.8555 45.5367L28.0863 48.3072C28.0863 48.3072 27.8884 48.5052 27.6906 48.5052C27.4928 48.5052 27.4929 48.5051 27.2951 48.3072L6.72363 27.726C6.72363 27.726 6.52581 27.5281 6.52581 27.3302C6.52581 27.1323 6.52582 27.1323 6.72363 26.9344L27.2951 6.35316C27.2951 6.35316 27.4928 6.15525 27.6906 6.15525C27.8884 6.15525 27.8885 6.15526 28.0863 6.35316L37.9764 16.248C37.9764 16.248 38.1742 16.4459 38.372 16.4459C38.5698 16.4459 38.5698 16.4459 38.7676 16.248L39.5588 15.4564C40.1522 14.8627 40.5478 13.8732 40.5478 13.0816C40.5478 12.0921 40.1522 11.3006 39.5588 10.7069L30.2621 1.40574C29.6687 0.812053 28.6797 0.41626 27.8885 0.41626C26.8994 0.41626 26.1083 0.812053 25.5149 1.40574L1.97632 24.9554C1.38291 25.5491 0.987305 26.5386 0.987305 27.3302C0.987305 28.3197 1.38291 29.1113 1.97632 29.705L25.5149 53.2547C26.1083 53.8483 27.0972 54.2441 27.8885 54.2441C28.6797 54.2441 29.6687 53.8483 30.2621 53.2547L35.9984 47.5157C36.5918 46.922 36.9874 45.9325 36.9874 45.1409C36.9874 44.3493 36.5918 43.3598 35.9984 42.7661L31.2511 38.0166L39.5588 29.705C40.1522 29.1113 40.5478 28.1218 40.5478 27.3302C40.5478 26.3407 40.1522 25.5491 39.5588 24.9554L29.8665 15.6543ZM27.6906 34.2566C27.6906 34.2566 27.4929 34.4545 27.2951 34.4545C27.0973 34.4545 27.0972 34.4545 26.8994 34.2566L20.5698 27.9239C20.5698 27.9239 20.372 27.726 20.372 27.5281C20.372 27.3302 20.372 27.3302 20.5698 27.1323L26.8994 20.7996C26.8994 20.7996 27.0973 20.6017 27.2951 20.6017C27.4929 20.6017 27.4928 20.6017 27.6906 20.7996L34.0203 27.1323C34.0203 27.1323 34.2182 27.3302 34.2182 27.5281C34.2182 27.726 34.2182 27.726 34.0203 27.9239L27.6906 34.2566Z" fill="white"/>
</svg>