<svg viewBox="0 0 36 22" fill="none" xmlns="http://www.w3.org/2000/svg">
    <path d="M12.25 4.25C12.6562 4.25 13 4.59375 13 5C13 5.4375 12.6562 5.75 12.25 5.75H4.75C4.3125 5.75 4 5.4375 4 5C4 4.59375 4.3125 4.25 4.75 4.25H12.25ZM17.25 8.25C17.6562 8.25 18 8.59375 18 9C18 9.4375 17.6562 9.75 17.25 9.75H4.75C4.3125 9.75 4 9.4375 4 9C4 8.59375 4.3125 8.25 4.75 8.25H17.25ZM4 13C4 12.5938 4.3125 12.25 4.75 12.25H12.25C12.6562 12.25 13 12.5938 13 13C13 13.4375 12.6562 13.75 12.25 13.75H4.75C4.3125 13.75 4 13.4375 4 13ZM17.25 16.25C17.6562 16.25 18 16.5938 18 17C18 17.4375 17.6562 17.75 17.25 17.75H4.75C4.3125 17.75 4 17.4375 4 17C4 16.5938 4.3125 16.25 4.75 16.25H17.25Z"
          fill="#C4D7E8"/>
</svg>